<svg xmlns="http://www.w3.org/2000/svg" viewBox="0 0 512 512">
  <g>
    <polygon points="159.91 315.36 112.08 315.36 112.08 189.8 159.91 189.8 159.91 152.44 74.72 152.44 74.72 352.73 159.91 352.73 159.91 315.36"/>
    <polygon points="352.73 152.44 352.73 189.8 400.56 189.8 400.56 315.36 352.73 315.36 352.73 352.73 437.93 352.73 437.93 152.44 352.73 152.44"/>
    <path d="M265.59,307.88h26.9a24.36,24.36,0,0,0,24.37-24.36V226.85a29.94,29.94,0,0,0-9.66-22L238.56,141.7a7.46,7.46,0,0,1-2.42-5.5V106.1a7.47,7.47,0,0,1,7.48-7.47H269a7.46,7.46,0,0,1,7.47,7.47v37.37h40.36V90.11a24.37,24.37,0,0,0-24.37-24.37H220.15a24.37,24.37,0,0,0-24.36,24.37v50.81a29.9,29.9,0,0,0,9.51,21.88l45,41.95H220.15a24.36,24.36,0,0,0-24.36,24.36v53.71a29.91,29.91,0,0,0,9.63,22l68.67,63.31a7.45,7.45,0,0,1,2.41,5.49v32.92A7.47,7.47,0,0,1,269,414H243.62a7.48,7.48,0,0,1-7.48-7.48V366.18H195.79v56.35a24.36,24.36,0,0,0,24.36,24.36h72.34a24.37,24.37,0,0,0,24.37-24.36V368.76a29.88,29.88,0,0,0-9.5-21.85Zm-22-67.26H269a7.47,7.47,0,0,1,7.47,7.48v16.44A7.46,7.46,0,0,1,269,272H243.62a7.47,7.47,0,0,1-7.48-7.47V248.1A7.48,7.48,0,0,1,243.62,240.62Z"/>
  </g>
  <rect width="512" height="512" style="fill: none"/>
</svg>
